<?xml version="1.0" encoding="UTF-8" standalone="no"?>
<!-- Generator: Adobe Illustrator 19.1.0, SVG Export Plug-In . SVG Version: 6.00 Build 0)  -->

<svg
   version="1.1"
   id="Layer_1"
   x="0px"
   y="0px"
   viewBox="0 0 64 64"
   style="enable-background:new 0 0 64 64;"
   xml:space="preserve"
   sodipodi:docname="icon-m-folder-magic.svg"
   inkscape:version="1.2.1 (9c6d41e410, 2022-07-14)"
   xmlns:inkscape="http://www.inkscape.org/namespaces/inkscape"
   xmlns:sodipodi="http://sodipodi.sourceforge.net/DTD/sodipodi-0.dtd"
   xmlns="http://www.w3.org/2000/svg"
   xmlns:svg="http://www.w3.org/2000/svg"><defs
   id="defs73" /><sodipodi:namedview
   id="namedview71"
   pagecolor="#ffffff"
   bordercolor="#666666"
   borderopacity="1.0"
   inkscape:showpageshadow="2"
   inkscape:pageopacity="0.0"
   inkscape:pagecheckerboard="true"
   inkscape:deskcolor="#d1d1d1"
   showgrid="false"
   inkscape:zoom="3.8398438"
   inkscape:cx="33.33469"
   inkscape:cy="41.538148"
   inkscape:window-width="1350"
   inkscape:window-height="1160"
   inkscape:window-x="1415"
   inkscape:window-y="16"
   inkscape:window-maximized="0"
   inkscape:current-layer="Layer_1" />
<g
   id="icon-m-file-folder">
	<rect
   id="icon-m-file-folder_1_"
   style="opacity:0;fill:#FFFFFF;"
   width="64"
   height="64" />
	<g
   style="opacity:0.6;"
   id="g65">
		<path
   style="fill:#FFFFFF;"
   d="M29.7,16l-2.59-2.065C26.273,12.74,24.699,12,22.993,12H12.357C11.161,12,10,13.214,10,14.5V20    h13.091c1.646,0,3.164-0.713,3.971-1.866L29.7,16z"
   id="path61" />
		<path
   style="fill:#FFFFFF;"
   d="M23.091,21H9v-6.5c0-1.832,1.6-3.5,3.357-3.5h10.636c1.967,0,3.809,0.854,4.848,2.238l3.457,2.756    l-3.503,2.835C26.785,20.171,24.999,21,23.091,21z M11,19h12.091c1.322,0,2.53-0.552,3.152-1.439l0.19-0.204l1.67-1.351    l-1.812-1.497C25.64,13.578,24.375,13,22.993,13H12.357C11.765,13,11,13.728,11,14.5V19z"
   id="path63" />
	</g>
	<path
   style="fill:#FFFFFF;"
   d="M51.75,53h-39.5C10.458,53,9,51.542,9,49.75V20.875C9,19.841,9.841,19,10.875,19h8.64   c2.131,0,5.274-0.441,5.796-0.74c0.602-0.486,1.717-1.385,2.441-1.971c1.035-0.837,3.618-1.29,5.524-1.29h18.516   C53.561,15,55,16.439,55,18.208V49.75C55,51.542,53.542,53,51.75,53z M11,21v28.75c0,0.689,0.561,1.25,1.25,1.25h39.5   c0.689,0,1.25-0.561,1.25-1.25V18.208C53,17.542,52.458,17,51.792,17H33.276c-1.967,0-3.841,0.5-4.266,0.844   c-0.727,0.588-1.845,1.489-2.485,2.002C25.433,20.724,20.744,21,19.515,21H11z"
   id="path67" />
</g>
<path
   style="fill:#ff88ff;stroke-width:0.999997;fill-opacity:1"
   d="m 47.259888,28.878722 c -0.200577,0 -0.3581,-0.0547 -0.40166,-0.07142 -1.328569,-0.517144 -2.3117,-1.648175 -2.624721,-2.969653 -1.170032,0.655927 -2.604968,0.732916 -3.887951,0.184369 -0.139289,-0.04204 -0.41331,-0.158537 -0.565262,-0.453324 -0.09218,-0.178797 -0.164108,-0.474091 0.01469,-0.869673 0.248695,-0.554119 0.650862,-1.06164 1.162941,-1.465833 0.213239,-0.167147 0.446233,-0.314034 0.693915,-0.438129 -0.502962,-0.461934 -0.910194,-1.066704 -1.15585,-1.739346 -0.358607,-0.983131 -0.341893,-1.983989 0.04711,-2.818713 0.03546,-0.07344 0.45535,-0.974014 0.45535,-0.974014 0.302385,-0.541963 0.838776,-0.733423 1.350855,-0.509547 v 0 c 0,0 1.768724,0.719241 1.812284,0.737982 1.202448,0.56121 2.119733,1.71706 2.463652,3.026381 1.19485,-0.632121 2.626747,-0.765839 3.842364,-0.323658 0.02482,0.0091 0.06129,0.02229 1.821401,0.819529 0.367724,0.145874 0.517144,0.375828 0.578938,0.545002 0.05723,0.158537 0.09016,0.408751 -0.06686,0.716708 -0.06433,0.181329 -0.338347,0.955273 -0.353542,0.994274 -0.619965,1.498755 -2.460613,2.47834 -4.162478,2.375519 0.07952,0.262878 0.131186,0.529807 0.152965,0.795723 0.05673,0.651875 -0.114977,1.384792 -0.279085,1.81431 -0.0937,0.248695 -0.264397,0.436609 -0.493845,0.53943 -0.140809,0.06331 -0.281111,0.08408 -0.405206,0.08408 z m -2.048316,-5.246909 -0.0091,1.241449 c -0.002,0.103834 0,0.207668 0.0091,0.310996 0.100795,1.13255 0.873726,2.146071 1.975886,2.599395 0.117003,-0.345944 0.215772,-0.850425 0.180316,-1.252592 -0.03698,-0.452311 -0.193992,-0.910194 -0.45383,-1.327556 l -0.827633,-1.326036 1.467352,0.538417 c 1.426324,0.523222 3.35713,-0.242111 3.897067,-1.546367 0.01722,-0.04812 0.242617,-0.685305 0.323152,-0.911207 -0.34088,-0.154485 -1.593472,-0.721266 -1.693761,-0.763813 -1.098614,-0.399634 -2.520887,-0.145368 -3.520226,0.639212 l -0.803321,0.630096 -0.06331,-1.018587 c -0.07901,-1.265255 -0.870686,-2.460106 -1.97082,-2.974211 -0.0542,-0.02229 -1.548393,-0.630095 -1.764165,-0.717721 -0.08408,0.170693 -0.429519,0.9107 -0.448259,0.948688 -0.262878,0.563237 -0.26693,1.272853 -0.0066,1.986016 0.290735,0.796229 0.867647,1.458741 1.544341,1.772776 l 1.448105,0.672135 -1.560043,0.338853 c -0.491819,0.106873 -0.946662,0.316567 -1.315906,0.605277 -0.348477,0.275033 -0.62655,0.61186 -0.807373,0.977559 1.104692,0.452311 2.394767,0.287189 3.308,-0.429012 0.05875,-0.04559 0.111938,-0.09522 0.165121,-0.143848 z"
   id="path318" /><path
   style="fill:#9cffb8;stroke-width:0.999996;fill-opacity:1"
   d="m 46.619602,50.040412 c -0.164736,0.004 -0.295271,-0.0373 -0.3314,-0.0502 -1.102126,-0.39657 -1.933545,-1.30468 -2.218631,-2.38338 -0.947062,0.56351 -2.123957,0.65714 -3.189308,0.2338 -0.115291,-0.0316 -0.342815,-0.12145 -0.47386,-0.36035 -0.0795,-0.14489 -0.144857,-0.38589 -0.0063,-0.71458 0.192514,-0.46037 0.512065,-0.88573 0.924078,-1.22854 0.171593,-0.1418 0.35984,-0.26738 0.560635,-0.37454 -0.422874,-0.36874 -0.770152,-0.85682 -0.986164,-1.40406 -0.315355,-0.79986 -0.322837,-1.62223 -0.02103,-2.31604 0.02757,-0.0611 0.353346,-0.80961 0.353346,-0.80961 0.236868,-0.45153 0.673356,-0.62014 1.098674,-0.44712 v 0 c 0,0 1.467911,0.55325 1.504084,0.56772 0.999474,0.43545 1.77734,1.36532 2.087546,2.43339 0.96795,-0.54448 2.141148,-0.68465 3.148916,-0.34723 0.02058,0.007 0.05081,0.017 1.513299,0.6345 0.305106,0.11201 0.432699,0.29771 0.487034,0.43534 0.05038,0.12899 0.08271,0.3338 -0.03972,0.59006 -0.04899,0.15029 -0.257647,0.79175 -0.269301,0.8241 -0.477428,1.24407 -1.968416,2.08762 -3.368353,2.03923 0.07088,0.21422 0.118968,0.43235 0.142492,0.65029 0.0604,0.53419 -0.0651,1.13979 -0.190775,1.49603 -0.07169,0.20624 -0.207901,0.36419 -0.39417,0.4535 -0.114307,0.055 -0.229098,0.075 -0.331019,0.0776 z m -1.793474,-4.26594 0.01882,1.01981 c 5.14e-4,0.0854 0.0044,0.17057 0.01408,0.25524 0.106781,0.92804 0.763071,1.74408 1.677892,2.09304 0.08876,-0.2866 0.159196,-0.70304 0.121555,-1.03259 -0.03995,-0.3707 -0.178612,-0.74344 -0.400863,-1.08071 l -0.70784,-1.07156 1.216559,0.41112 c 1.182542,0.39951 2.752117,-0.26998 3.167937,-1.35262 0.01312,-0.0399 0.184745,-0.56799 0.246102,-0.75523 -0.283241,-0.11966 -1.324018,-0.55862 -1.407287,-0.59144 -0.910771,-0.30495 -2.073511,-0.066 -2.877654,0.59958 l -0.646429,0.53452 -0.07359,-0.83523 c -0.0917,-1.03749 -0.76723,-2.00207 -1.681672,-2.40099 -0.04499,-0.0172 -1.285062,-0.4847 -1.464134,-0.55209 -0.06544,0.14197 -0.333471,0.75706 -0.348059,0.78866 -0.203969,0.46816 -0.192262,1.05106 0.03666,1.63127 0.255653,0.64779 0.743514,1.1797 1.305943,1.42328 l 1.203584,0.52135 -1.274099,0.31135 c -0.401671,0.0982 -0.770792,0.28007 -1.067941,0.52501 -0.280381,0.23327 -0.501628,0.5158 -0.642391,0.81998 0.916878,0.34809 1.97293,0.18513 2.707803,-0.42244 0.04729,-0.0387 0.08992,-0.0805 0.132568,-0.12164 z"
   id="path318-5-0" /><path
   style="fill:#4eabff;stroke-width:0.999996;fill-opacity:1"
   d="m 51.557769,34.125982 c -0.04093,0.10765 -0.102459,0.18101 -0.120363,0.20097 -0.548809,0.6074 -1.356545,0.90406 -2.129648,0.80222 0.113103,0.76184 -0.138582,1.54764 -0.694939,2.12417 -0.05099,0.0661 -0.169475,0.18943 -0.358706,0.21079 -0.114775,0.013 -0.287939,-0.009 -0.46372,-0.18547 -0.246594,-0.24661 -0.436846,-0.56607 -0.549197,-0.92342 -0.04617,-0.14857 -0.07742,-0.3036 -0.09344,-0.46186 -0.350609,0.1756 -0.758321,0.27066 -1.169466,0.26514 -0.600833,-0.009 -1.134548,-0.22162 -1.503085,-0.60082 -0.03218,-0.0341 -0.429741,-0.44327 -0.429741,-0.44327 -0.229109,-0.27294 -0.22233,-0.59989 0.0024,-0.82899 v 0 c 0,0 0.747151,-0.80235 0.766104,-0.8219 0.546711,-0.53072 1.354316,-0.78699 2.127204,-0.70421 -0.09526,-0.7703 0.125357,-1.56605 0.610882,-2.12815 0.0099,-0.0115 0.02445,-0.0284 0.811725,-0.81013 0.153371,-0.16757 0.307288,-0.2008 0.410697,-0.19942 0.09677,0.002 0.237769,0.0351 0.37098,0.18223 0.08418,0.0715 0.443577,0.37663 0.461405,0.39275 0.677734,0.63875 0.827605,1.82658 0.424916,2.71891 0.157319,0.011 0.311115,0.0378 0.458272,0.0804 0.361421,0.10265 0.719694,0.34447 0.916689,0.52024 0.114337,0.10107 0.180328,0.23104 0.188657,0.37517 0.0052,0.0885 -0.01231,0.16802 -0.03762,0.23463 z m -3.23408,0.0279 0.664383,0.25837 c 0.05532,0.0223 0.111445,0.0425 0.168767,0.0587 0.628382,0.17716 1.330129,-0.0307 1.79846,-0.52962 -0.161764,-0.13343 -0.412337,-0.28944 -0.635406,-0.35253 -0.250285,-0.0725 -0.528079,-0.0817 -0.805115,-0.0275 l -0.880638,0.17339 0.588574,-0.67753 c 0.572036,-0.65862 0.555561,-1.85109 -0.03414,-2.40718 -0.02231,-0.019 -0.318241,-0.27013 -0.42303,-0.35948 -0.152512,0.15139 -0.712448,0.70789 -0.755758,0.75302 -0.438801,0.50799 -0.592744,1.3232 -0.375756,2.01971 l 0.174118,0.55977 -0.559565,-0.174 c -0.695156,-0.21595 -1.498044,-0.0351 -1.99858,0.45036 -0.02303,0.0245 -0.654317,0.70231 -0.745401,0.80021 0.07444,0.0799 0.401033,0.41646 0.417595,0.43429 0.248596,0.25608 0.628594,0.40315 1.064478,0.40906 0.486673,0.007 0.960022,-0.16778 1.266726,-0.46681 l 0.656399,-0.63991 -0.136694,0.90642 c -0.04307,0.28576 -0.0234,0.57267 0.05613,0.82979 0.07645,0.24318 0.200431,0.46118 0.359765,0.6329 0.46831,-0.5005 0.643111,-1.22655 0.445227,-1.86289 -0.01247,-0.0408 -0.02822,-0.0795 -0.04348,-0.11799 z"
   id="path318-5-0-4" /><g
   transform="matrix(0.48348638,0,0,0.48348638,-6.2154422,-14.429471)"
   id="g4"
   style="stroke-width:2.06831"><g
     id="g6"
     style="stroke-width:2.06831"><path
       d="M 98.465051,94.664231 87.53172,92.440417 91.911083,84.299719 c 0.17,-0.325 0.109,-0.723 -0.143,-0.991 -0.254,-0.265 -0.645,-0.347 -0.984,-0.193 l -7.869162,3.727363 -2.11435,-8.640177 c -0.111,-0.346 -0.438,-0.587 -0.805,-0.598 -0.476,-0.037 -0.699,0.218 -0.832,0.558 l -3.936807,5.656645 -8.901205,-3.142612 c -0.326,-0.167 -0.724,-0.112 -0.991,0.143 -0.266,0.255 -0.344,0.648 -0.194,0.984 l 3.914334,9.752105 -14.368287,0.812739 c -0.347,0.116 -0.587,0.435 -0.598,0.802 -0.007,0.37 0.214,0.703 0.557,0.835 l 10.206908,6.501458 -14.181,14.181 h 0.003 l -30.11,30.106 c -1.719,1.719 -1.719,4.51 0,6.231 l 2.071,2.074 c 0.862,0.859 1.99,1.291 3.121,1.291 1.127,0 2.255,-0.432 3.113,-1.291 l 32.389,-32.381 -0.004,-0.004 11.169,-11.168 4.787522,9.7038 c 0.119,0.347 0.441,0.581 0.809,0.587 h 0.014 c 0.359,0 0.682,-0.221 0.811,-0.557 l 4.882478,-10.3658 7.66867,1.7297 c 0.325,0.163 0.727,0.108 0.991,-0.149 0.269,-0.252 0.347,-0.646 0.197,-0.981 l -0.60267,-8.4497 6.442537,-4.761009 c 0.346,-0.115 0.587,-0.441 0.598,-0.809 0.007,-0.365 -0.213,-0.698 -0.557,-0.83 z M 60.025514,119.48624 c -0.03,0.031 -0.058,0.062 -0.084,0.092 l -32.301,32.292 c -0.502,0.503 -1.175,0.781 -1.884,0.781 -0.717,0 -1.39,-0.278 -1.892,-0.781 l -2.071,-2.07 c -1.039,-1.047 -1.039,-2.737 0,-3.776 l 30.106,-30.106 4.488,-4.489 5.848,5.848 1.229,-1.229 -5.848,-5.848 15.081,-15.079995 c 0.506,-0.502 1.178,-0.781 1.891,-0.781 0.347,0 0.687,0.071 1.002,0.197 0.326,0.133 0.625,0.322 0.88,0.581 l 0.987,0.987 1.091,1.091 c 0.468,0.472 0.72,1.093 0.754,1.752 0.003,0.048 0.026,0.088 0.026,0.136 0,0.618 -0.244,1.187995 -0.631,1.663995 -0.059,0.067 -0.085,0.156 -0.149,0.217 z m 30.504,-19.772995 c -0.237,0.074 -0.428,0.248 -0.526,0.471995 -0.099,0.228 -0.099,0.482 0,0.706 l 0.735753,7.75211 -7.082753,-1.71111 c -0.217,-0.108 -0.475,-0.129 -0.706,-0.037 -0.23,0.088 -0.411,0.269 -0.499,0.499 l -4.370478,9.0318 -4.258522,-8.2778 5.956,-5.956 c 0.388,-0.387 0.663,-0.842 0.876,-1.317 0.728,-1.615995 0.455,-3.578995 -0.876,-4.909995 l -2.078,-2.078 c -0.278,-0.278 -0.621,-0.441 -0.95,-0.632 -0.673,-0.387 -1.399,-0.655 -2.16,-0.655 -1.127,0 -2.255,0.432 -3.117,1.287 l -5.256,5.256 -0.714,-0.244 -7.950908,-5.640463 12.955287,-0.350739 c 0.238,-0.075 0.428,-0.248 0.526,-0.473 0.099,-0.227 0.099,-0.481 0,-0.706 l -4.207769,-9.29554 8.47464,3.369047 c 0.218,0.112 0.476,0.126 0.703,0.038 0.228,-0.089 0.411,-0.269 0.499,-0.5 l 3.407807,-4.272645 1.65235,7.231177 c 0.075,0.23 0.248,0.421 0.473,0.522 0.228,0.099 0.481,0.099 0.706,0 l 6.513162,-3.122363 -3.712363,6.817698 c -0.108,0.217 -0.122,0.475 -0.034,0.703 0.088,0.227 0.271,0.41 0.499,0.499 l 10.286414,2.097194 z"
       id="path12"
       style="font-variation-settings:normal;opacity:1;vector-effect:none;fill:#ffffff;fill-opacity:1;stroke-width:2.06831;stroke-linecap:butt;stroke-linejoin:miter;stroke-miterlimit:4;stroke-dasharray:none;stroke-dashoffset:0;stroke-opacity:1;-inkscape-stroke:none;stop-color:#000000;stop-opacity:1"
       sodipodi:nodetypes="cccccccccccccccccccccccsccccccsccccccccccccsccsccccccscccccsccccccccccccccsscsccccccccccccccccccccc" /></g></g></svg>
